<?xml version="1.0" encoding="UTF-8" standalone="no"?><!-- Generator: Gravit.io --><svg xmlns="http://www.w3.org/2000/svg" xmlns:xlink="http://www.w3.org/1999/xlink" style="isolation:isolate" viewBox="71.8 62.525 55.275 15.8" width="55.275pt" height="15.8pt"><path d=" M 94.125 76.65 L 94.125 76.65 Q 94.15 76.65 94.175 76.663 L 94.175 76.663 L 94.175 76.663 Q 94.2 76.675 94.225 76.65 L 94.225 76.65 L 94.225 76.65 Q 94.525 76.65 94.675 76.35 L 94.675 76.35 L 94.675 76.35 Q 94.725 76.275 94.788 76.175 L 94.788 76.175 L 94.788 76.175 Q 94.85 76.075 94.925 75.95 L 94.925 75.95 L 94.925 75.95 Q 95.4 75.1 96.05 74.125 L 96.05 74.125 L 96.05 74.125 Q 96.9 72.9 97.2 72.325 L 97.2 72.325 L 97.9 71 L 97.9 71 Q 98 70.825 98.175 70.75 L 98.175 70.75 L 98.175 70.75 Q 100.375 69.825 101.225 69.525 L 101.225 69.525 L 101.225 69.525 Q 101.425 69.45 101.913 69.275 L 101.913 69.275 L 101.913 69.275 Q 102.4 69.1 102.8 69.05 L 102.8 69.05 L 102.8 69.05 Q 102.8 69.05 102.875 69.05 L 102.875 69.05 L 102.875 69.05 Q 102.95 69.05 102.95 68.975 L 102.95 68.975 L 102.95 68.975 Q 102.95 68.875 102.85 68.825 L 102.85 68.825 L 102.85 68.825 Q 102.825 68.8 102.625 68.725 L 102.625 68.725 L 102.625 68.725 Q 102.55 68.7 102.375 68.7 L 102.375 68.7 L 102.375 68.7 Q 102.225 68.7 102.125 68.725 L 102.125 68.725 L 102.125 68.725 Q 101.7 68.8 101.2 68.95 L 101.2 68.95 L 101.2 68.95 Q 100.7 69.1 100.525 69.15 L 100.525 69.15 L 98.85 69.675 L 98.65 69.725 L 98.65 69.725 Q 98.625 69.725 98.6 69.7 L 98.6 69.7 L 98.6 69.7 Q 98.575 69.675 98.6 69.625 L 98.6 69.625 L 98.6 69.625 Q 98.6 69.575 98.625 69.55 L 98.625 69.55 L 99.35 67.95 L 99.35 67.95 Q 100 66.55 101 64 L 101 64 L 101 64 Q 101.075 63.825 101.175 63.425 L 101.175 63.425 L 101.175 63.35 L 101.175 63.35 Q 101.175 63.275 101.125 63.125 L 101.125 63.125 L 101.125 63.125 Q 100.9 62.9 100.675 62.925 L 100.675 62.925 L 100.675 62.925 Q 100.625 62.95 100.55 62.95 L 100.55 62.95 L 100.55 62.95 Q 100.425 62.9 100.3 63.025 L 100.3 63.025 L 99.9 63.55 L 99.9 63.55 Q 99.15 64.7 98.475 66 L 98.475 66 L 96.35 70.275 L 96.35 70.275 Q 96.2 70.575 95.9 70.675 L 95.9 70.675 L 95.9 70.675 Q 95.725 70.725 95.1 70.95 L 95.1 70.95 L 94 71.3 L 94 71.3 Q 93.85 71.35 93.775 71.35 L 93.775 71.35 L 93.775 71.35 Q 93.75 71.375 93.713 71.338 L 93.713 71.338 L 93.713 71.338 Q 93.675 71.3 93.7 71.275 L 93.7 71.275 L 93.75 71.15 L 94.825 68.9 L 94.825 68.9 Q 95.775 66.85 96.375 64.9 L 96.375 64.9 L 96.375 64.9 Q 96.5 64.575 96.65 63.775 L 96.65 63.775 L 96.65 63.775 Q 96.7 63.525 96.625 63.425 L 96.625 63.425 L 96.625 63.425 Q 96.525 63.25 96.375 63.1 L 96.375 63.1 L 96.375 63.1 Q 96.15 62.875 95.875 62.9 L 95.875 62.9 L 95.875 62.9 Q 95.85 62.9 95.788 62.912 L 95.788 62.912 L 95.788 62.912 Q 95.725 62.925 95.675 62.9 L 95.675 62.9 L 95.675 62.9 Q 95.575 62.85 95.5 62.85 L 95.5 62.85 L 95.5 62.85 Q 95.375 62.85 95.175 63 L 95.175 63 L 94.85 63.225 L 94.85 63.225 Q 93.725 64.175 93 65 L 93 65 L 93 65 Q 91.15 67.125 89.925 69.15 L 89.925 69.15 L 89.925 69.15 Q 89.575 69.8 89.4 70.275 L 89.4 70.275 L 89.4 70.275 Q 89.275 70.725 89.2 71.05 L 89.2 71.05 L 89.2 71.05 Q 89.1 71.975 89.925 72.225 L 89.925 72.225 L 89.925 72.225 Q 90.225 72.325 90.575 72.375 L 90.575 72.375 L 90.575 72.375 Q 90.925 72.425 91.125 72.425 L 91.125 72.425 L 91.125 72.425 Q 91.275 72.45 91.2 72.6 L 91.2 72.6 L 90.725 73.5 L 89.425 76.05 L 89.425 76.05 Q 88.975 76.95 88.8 77.775 L 88.8 77.775 L 88.8 77.775 Q 88.8 77.825 88.75 77.988 L 88.75 77.988 L 88.75 77.988 Q 88.7 78.15 88.825 78.225 L 88.825 78.225 L 88.825 78.225 Q 88.925 78.325 89.1 78.325 L 89.1 78.325 L 89.1 78.325 Q 89.175 78.325 89.375 78.275 L 89.375 78.275 L 89.375 78.275 Q 89.475 78.25 89.575 78.15 L 89.575 78.15 L 89.575 78.15 Q 89.725 78.025 89.8 77.9 L 89.8 77.9 L 89.8 77.9 Q 90.2 77.35 90.375 77.05 L 90.375 77.05 L 91.325 75.475 L 91.725 74.825 L 91.725 74.825 Q 92.575 73.45 93.1 72.45 L 93.1 72.45 L 93.1 72.45 Q 93.225 72.225 93.45 72.175 L 93.45 72.175 L 93.45 72.175 Q 94.5 71.975 95.35 71.7 L 95.35 71.7 L 95.5 71.675 L 95.5 71.675 Q 95.625 71.675 95.575 71.75 L 95.575 71.75 L 95.5 71.9 L 94.975 73.025 L 94.65 73.775 L 94.65 73.775 Q 94.475 74.225 94.075 75.075 L 94.075 75.075 L 94.075 75.075 Q 94 75.25 93.938 75.388 L 93.938 75.388 L 93.938 75.388 Q 93.875 75.525 93.825 75.625 L 93.825 75.625 L 93.825 75.625 Q 93.625 76.075 93.6 76.35 L 93.6 76.35 L 93.6 76.4 L 93.6 76.4 Q 93.6 76.5 93.65 76.55 L 93.65 76.55 L 93.65 76.55 Q 93.7 76.6 93.85 76.65 L 93.85 76.65 L 94.125 76.65 L 94.125 76.65 Z  M 91.075 71.9 L 90.4 71.775 L 90.4 71.775 Q 90.175 71.7 90.1 71.45 L 90.1 71.45 L 90.1 71.45 Q 90.075 71.35 90.075 71.125 L 90.075 71.125 L 90.075 71.125 Q 90.075 70.825 90.2 70.45 L 90.2 70.45 L 90.2 70.45 Q 90.475 69.725 90.975 68.975 L 90.975 68.975 L 90.975 68.975 Q 91.775 67.8 92.425 67.075 L 92.425 67.075 L 92.425 67.075 Q 93.425 65.825 94.175 65.125 L 94.175 65.125 L 94.175 65.125 Q 94.25 65.025 94.75 64.6 L 94.75 64.6 L 94.75 64.6 Q 94.75 64.575 94.8 64.575 L 94.8 64.575 L 94.825 64.625 L 94.675 65.025 L 94.675 65.025 Q 93.6 67.675 92.425 70.1 L 92.425 70.1 L 91.725 71.575 L 91.725 71.575 Q 91.575 71.875 91.275 71.875 L 91.275 71.875 L 91.075 71.875 L 91.075 71.9 L 91.075 71.9 Z  M 98.375 75.375 L 98.375 75.375 Q 98.45 75.375 98.75 75.325 L 98.75 75.325 L 98.75 75.325 Q 99.05 75.275 99.3 75.075 L 99.3 75.075 L 99.3 75.075 Q 99.875 74.675 100.4 74.35 L 100.4 74.35 L 101.075 73.9 L 101.925 73.325 L 101.925 73.325 Q 102.1 73.15 102 73.075 L 102 73.075 L 102 73.075 Q 101.9 72.975 101.813 73.025 L 101.813 73.025 L 101.813 73.025 Q 101.725 73.075 101.7 73.075 L 101.7 73.075 L 101.7 73.075 Q 101.55 73.075 100.4 73.825 L 100.4 73.825 L 100.4 73.825 Q 99.4 74.45 99.3 74.45 L 99.3 74.45 L 99.2 74.45 L 99.2 74.45 Q 98.925 74.45 98.95 74.225 L 98.95 74.225 L 98.95 74.225 Q 98.95 74.15 98.988 74 L 98.988 74 L 98.988 74 Q 99.025 73.85 99.05 73.75 L 99.05 73.75 L 99.05 73.75 Q 99.075 73.625 99.25 73.45 L 99.25 73.45 L 99.25 73.45 Q 99.45 73.325 99.8 73.025 L 99.8 73.025 L 99.8 73.025 Q 100.225 72.675 100.425 72.15 L 100.425 72.15 L 100.425 72.15 Q 100.5 72 100.5 71.825 L 100.5 71.825 L 100.5 71.775 L 100.5 71.775 Q 100.5 71.5 100.1 71.45 L 100.1 71.45 L 99.975 71.45 L 99.975 71.45 Q 99.75 71.45 99.5 71.575 L 99.5 71.575 L 99.5 71.575 Q 98.725 71.9 98.225 72.575 L 98.225 72.575 L 98.225 72.575 Q 97.875 73.075 97.6 73.775 L 97.6 73.775 L 97.6 73.775 Q 97.475 74.1 97.35 74.5 L 97.35 74.5 L 97.35 74.5 Q 97.25 74.85 97.525 75.113 L 97.525 75.113 L 97.525 75.113 Q 97.8 75.375 98.375 75.375 L 98.375 75.375 L 98.375 75.375 Z  M 100.125 72.025 L 100.075 72.125 L 99.775 72.6 L 99.775 72.6 Q 99.7 72.7 99.588 72.813 L 99.588 72.813 L 99.588 72.813 Q 99.475 72.925 99.4 72.975 L 99.4 72.975 L 99.4 72.925 L 99.4 72.925 Q 99.4 72.8 99.5 72.675 L 99.5 72.675 L 99.5 72.675 Q 99.6 72.55 99.625 72.525 L 99.625 72.525 L 99.625 72.525 Q 99.75 72.325 100.05 71.975 L 100.05 71.975 L 100.1 71.975 L 100.125 72.025 L 100.125 72.025 Z  M 109.175 73.025 L 109.175 73.025 Q 109.25 73.1 109.25 73.175 L 109.25 73.175 L 109.25 73.175 Q 109.25 73.225 109.213 73.288 L 109.213 73.288 L 109.213 73.288 Q 109.175 73.35 109.15 73.375 L 109.15 73.375 L 109.15 73.375 Q 108.85 73.75 108.338 74.175 L 108.338 74.175 L 108.338 74.175 Q 107.825 74.6 107.575 74.725 L 107.575 74.725 L 107.575 74.725 Q 107.25 74.875 106.9 74.875 L 106.9 74.875 L 106.9 74.875 Q 106.6 74.875 106.45 74.825 L 106.45 74.825 L 106.45 74.825 Q 106.2 74.8 105.95 74.45 L 105.95 74.45 L 105.95 74.45 Q 105.9 74.375 105.9 74.175 L 105.9 74.175 L 105.975 73.575 L 105.975 73.525 L 105.9 73.55 L 105.9 73.55 Q 105.15 74.175 104.75 74.75 L 104.75 74.75 L 104.75 74.75 Q 104.725 74.8 104.55 74.838 L 104.55 74.838 L 104.55 74.838 Q 104.375 74.875 104.3 74.9 L 104.3 74.9 L 104.15 74.925 L 104.15 74.925 Q 104.05 74.925 104.013 74.875 L 104.013 74.875 L 104.013 74.875 Q 103.975 74.825 103.9 74.8 L 103.9 74.8 L 103.9 74.8 Q 103.75 74.75 103.75 74.6 L 103.75 74.6 L 103.75 74.6 Q 103.75 74.5 103.825 74.275 L 103.825 74.275 L 103.825 74.275 Q 103.975 73.675 104.3 73.225 L 104.3 73.225 L 104.35 73.125 L 104.35 73.125 Q 103.775 73.45 102.925 74.1 L 102.925 74.1 L 102.775 74.375 L 102.7 74.55 L 102.6 74.675 L 102.35 75.05 L 102.35 75.05 Q 102.1 75.475 101.625 75.475 L 101.625 75.475 L 101.625 75.475 Q 101.475 75.475 101.4 75.45 L 101.4 75.45 L 101.4 75.45 Q 101.2 75.4 100.9 75.35 L 100.9 75.35 L 100.9 75.35 Q 100.7 75.3 100.775 75.125 L 100.775 75.125 L 100.775 75.125 Q 100.95 74.525 101.05 74.3 L 101.05 74.3 L 101.05 74.3 Q 101.4 73.45 102.1 72.5 L 102.1 72.5 L 102.3 72.25 L 102.3 72.25 Q 102.45 72.075 102.5 72.025 L 102.5 72.025 L 102.525 72.025 L 102.525 72.025 Q 102.55 72.025 102.613 72.05 L 102.613 72.05 L 102.613 72.05 Q 102.675 72.075 102.725 72.05 L 102.725 72.05 L 102.725 72.05 Q 102.975 72.025 103.1 72.163 L 103.1 72.163 L 103.1 72.163 Q 103.225 72.3 103.35 72.575 L 103.35 72.575 L 103.35 72.575 Q 103.4 72.675 103.35 72.875 L 103.35 72.875 L 103.275 73.3 L 103.275 73.3 Q 103.425 73.15 103.725 72.95 L 103.725 72.95 L 103.725 72.95 Q 103.975 72.775 104.163 72.7 L 104.163 72.7 L 104.163 72.7 Q 104.35 72.625 104.6 72.625 L 104.6 72.625 L 104.6 72.625 Q 105.075 72.625 105.2 73.05 L 105.2 73.05 L 105.2 73.05 L 105.225 73.1 L 105.225 73.1 Q 105.225 73.175 105.25 73.2 L 105.25 73.2 L 105.25 73.2 Q 105.25 73.275 105.325 73.275 L 105.325 73.275 L 105.325 73.275 Q 105.375 73.275 105.625 73.15 L 105.625 73.15 L 106.05 73 L 106.05 73 Q 106.25 72.9 106.375 72.9 L 106.375 72.9 L 106.475 72.9 L 106.475 72.9 Q 106.725 72.9 106.813 73 L 106.813 73 L 106.813 73 Q 106.9 73.1 106.875 73.35 L 106.875 73.35 L 106.8 74.15 L 106.8 74.15 Q 106.8 74.25 106.863 74.3 L 106.863 74.3 L 106.863 74.3 Q 106.925 74.35 107.05 74.325 L 107.05 74.325 L 107.05 74.325 Q 107.525 74.125 107.838 73.913 L 107.838 73.913 L 107.838 73.913 Q 108.15 73.7 108.425 73.438 L 108.425 73.438 L 108.425 73.438 Q 108.7 73.175 108.825 73.05 L 108.825 73.05 L 108.825 73.05 Q 108.85 73.025 108.963 72.975 L 108.963 72.975 L 108.963 72.975 Q 109.075 72.925 109.175 73.025 L 109.175 73.025 L 109.175 73.025 Z  M 113.075 72.575 L 113.075 72.575 Q 113.1 72.575 113.175 72.613 L 113.175 72.613 L 113.175 72.613 Q 113.25 72.65 113.25 72.775 L 113.25 72.775 L 113.25 72.775 Q 113.25 72.95 113.175 72.975 L 113.175 72.975 L 113.175 72.975 Q 113.1 73 113.075 73 L 113.075 73 L 113.075 73 Q 112.975 73.025 112.625 73.025 L 112.625 73.025 L 112.625 73.025 Q 111.875 73.025 111.45 72.925 L 111.45 72.925 L 111.45 72.925 Q 111.4 72.925 111.375 72.913 L 111.375 72.913 L 111.375 72.913 Q 111.35 72.9 111.35 72.95 L 111.35 72.95 L 111.35 72.95 Q 111.275 73.575 111.075 74.15 L 111.075 74.15 L 111.075 74.15 Q 110.875 74.725 110.5 75.5 L 110.5 75.5 L 110.5 75.5 Q 110.425 75.675 110.225 75.975 L 110.225 75.975 L 110.225 75.975 Q 110 76.25 109.75 76.25 L 109.75 76.25 L 109.475 76.325 L 109.475 76.325 Q 109.375 76.35 109.175 76.35 L 109.175 76.35 L 109.175 76.35 Q 109.05 76.35 108.975 76.325 L 108.975 76.325 L 108.975 76.325 Q 108.825 76.3 108.525 76.3 L 108.525 76.3 L 108.525 76.3 Q 108.25 76.3 107.975 76.075 L 107.975 76.075 L 107.975 76.075 Q 107.65 75.825 107.65 75.45 L 107.65 75.45 L 107.65 75.45 Q 107.65 74.725 108.125 74.05 L 108.125 74.05 L 108.125 74.05 Q 108.525 73.25 108.85 72.925 L 108.85 72.925 L 109.075 72.775 L 109.075 72.775 Q 109.175 72.725 109.375 72.725 L 109.375 72.725 L 109.375 72.725 Q 109.525 72.725 109.65 72.75 L 109.65 72.75 L 109.65 72.75 Q 109.775 72.775 109.85 72.825 L 109.85 72.825 L 109.85 72.825 Q 110.05 73.025 110.125 73.15 L 110.125 73.15 L 110.125 73.15 Q 110.175 73.225 110.125 73.35 L 110.125 73.35 L 110 73.7 L 109.675 74.475 L 109.425 75.075 L 109.525 75.025 L 109.525 75.025 Q 110.275 74.225 110.725 73.025 L 110.725 73.025 L 110.725 73.025 Q 110.75 73 110.75 72.963 L 110.75 72.963 L 110.75 72.963 Q 110.75 72.925 110.775 72.9 L 110.775 72.9 L 110.775 72.9 Q 110.775 72.8 110.7 72.775 L 110.7 72.775 L 110.5 72.725 L 110.5 72.725 Q 110.3 72.675 110.188 72.6 L 110.188 72.6 L 110.188 72.6 Q 110.075 72.525 109.925 72.35 L 109.925 72.35 L 109.925 72.35 Q 109.725 72.075 109.725 71.85 L 109.725 71.85 L 109.725 71.85 Q 109.725 71.675 109.85 71.425 L 109.85 71.425 L 109.85 71.425 Q 110.075 71 110.6 70.825 L 110.6 70.825 L 110.6 70.825 Q 110.675 70.8 110.825 70.8 L 110.825 70.8 L 110.825 70.8 Q 111.1 70.8 111.25 70.963 L 111.25 70.963 L 111.25 70.963 Q 111.4 71.125 111.4 71.35 L 111.4 71.35 L 111.4 72.2 L 111.4 72.2 Q 111.4 72.25 111.4 72.35 L 111.4 72.35 L 111.4 72.35 Q 111.4 72.45 111.5 72.475 L 111.5 72.475 L 111.5 72.475 Q 111.95 72.65 112.325 72.65 L 112.325 72.65 L 112.325 72.65 Q 112.6 72.65 112.813 72.625 L 112.813 72.625 L 112.813 72.625 Q 113.025 72.6 113.075 72.575 L 113.075 72.575 L 113.075 72.575 Z  M 110.975 71.85 L 110.975 71.85 Q 111 71.775 111 71.625 L 111 71.625 L 111 71.625 Q 111 71.475 110.975 71.425 L 110.975 71.425 L 110.975 71.425 Q 110.975 71.4 110.95 71.313 L 110.95 71.313 L 110.95 71.313 Q 110.925 71.225 110.875 71.175 L 110.875 71.175 L 110.85 71.175 L 110.85 71.175 Q 110.8 71.175 110.675 71.3 L 110.675 71.3 L 110.475 71.625 L 110.475 71.625 Q 110.425 71.725 110.425 71.85 L 110.425 71.85 L 110.425 71.85 Q 110.425 72 110.5 72.075 L 110.5 72.075 L 110.5 72.075 Q 110.6 72.15 110.713 72.2 L 110.713 72.2 L 110.713 72.2 Q 110.825 72.25 110.925 72.325 L 110.925 72.325 L 110.975 71.85 L 110.975 71.85 Z  M 117.925 73 L 117.925 73 Q 118 73.075 118 73.15 L 118 73.15 L 118 73.15 Q 118 73.2 117.963 73.263 L 117.963 73.263 L 117.963 73.263 Q 117.925 73.325 117.9 73.35 L 117.9 73.35 L 117.9 73.35 Q 117.6 73.725 117.088 74.15 L 117.088 74.15 L 117.088 74.15 Q 116.575 74.575 116.325 74.7 L 116.325 74.7 L 116.325 74.7 Q 116.025 74.85 115.65 74.85 L 115.65 74.85 L 115.65 74.85 Q 115.5 74.85 115.2 74.8 L 115.2 74.8 L 115.2 74.8 Q 114.925 74.75 114.7 74.425 L 114.7 74.425 L 114.7 74.425 Q 114.65 74.35 114.65 74.15 L 114.65 74.15 L 114.725 73.55 L 114.725 73.5 L 114.65 73.525 L 114.65 73.525 Q 114.125 73.975 113.8 74.35 L 113.8 74.35 L 113.725 74.525 L 113.725 74.525 Q 113.675 74.55 113.625 74.65 L 113.625 74.65 L 113.625 74.65 Q 113.575 74.7 113.375 75.025 L 113.375 75.025 L 113.375 75.025 Q 113.125 75.45 112.65 75.45 L 112.65 75.45 L 112.65 75.45 Q 112.5 75.45 112.425 75.425 L 112.425 75.425 L 111.925 75.3 L 111.925 75.3 Q 111.725 75.3 111.775 75.1 L 111.775 75.1 L 111.775 75.1 Q 112.025 74.375 112.075 74.25 L 112.075 74.25 L 112.075 74.25 Q 112.5 73.275 113.125 72.475 L 113.125 72.475 L 113.125 72.475 Q 113.2 72.4 113.238 72.325 L 113.238 72.325 L 113.238 72.325 Q 113.275 72.25 113.325 72.2 L 113.325 72.2 L 113.325 72.2 Q 113.45 72.025 113.525 72 L 113.525 72 L 113.55 72 L 113.55 72 Q 113.575 72 113.638 72.025 L 113.638 72.025 L 113.638 72.025 Q 113.7 72.05 113.75 72.025 L 113.75 72.025 L 113.75 72.025 Q 114 72 114.125 72.125 L 114.125 72.125 L 114.125 72.125 Q 114.25 72.25 114.375 72.55 L 114.375 72.55 L 114.375 72.55 Q 114.425 72.675 114.375 72.85 L 114.375 72.85 L 114.375 72.85 Q 114.375 73 114.3 73.15 L 114.3 73.15 L 114.3 73.15 Q 114.35 73.15 114.375 73.125 L 114.375 73.125 L 114.8 72.975 L 114.8 72.975 Q 115 72.875 115.125 72.875 L 115.125 72.875 L 115.225 72.875 L 115.225 72.875 Q 115.475 72.875 115.563 72.975 L 115.563 72.975 L 115.563 72.975 Q 115.65 73.075 115.625 73.325 L 115.625 73.325 L 115.55 74.125 L 115.55 74.125 Q 115.55 74.225 115.613 74.275 L 115.613 74.275 L 115.613 74.275 Q 115.675 74.325 115.8 74.3 L 115.8 74.3 L 115.8 74.3 Q 116.275 74.1 116.588 73.888 L 116.588 73.888 L 116.588 73.888 Q 116.9 73.675 117.175 73.413 L 117.175 73.413 L 117.175 73.413 Q 117.45 73.15 117.575 73.025 L 117.575 73.025 L 117.575 73.025 Q 117.6 73 117.713 72.95 L 117.713 72.95 L 117.713 72.95 Q 117.825 72.9 117.925 73 L 117.925 73 L 117.925 73 Z  M 125.375 63 L 125.375 63 Q 125.425 63.1 125.425 63.3 L 125.425 63.3 L 125.4 63.55 L 125.325 63.925 L 125.325 63.925 Q 125.075 64.875 124.6 66.05 L 124.6 66.05 L 124.6 66.05 Q 124.05 67.4 123.125 69.2 L 123.125 69.2 L 122.625 70.2 L 122.625 70.2 Q 122.375 70.675 121.925 71.425 L 121.925 71.425 L 121.925 71.425 Q 121.475 72.175 121.075 72.7 L 121.075 72.7 L 121.075 72.7 Q 120.75 73.45 120.8 73.375 L 120.8 73.375 L 120.8 73.375 Q 120.7 73.675 120.588 74.425 L 120.588 74.425 L 120.588 74.425 Q 120.475 75.175 120.625 75.05 L 120.625 75.05 L 120.625 75.05 Q 120.825 74.9 120.9 74.8 L 120.9 74.8 L 122.7 73.15 L 122.925 73 L 122.925 73 Q 122.975 72.95 123.05 72.95 L 123.05 72.95 L 123.175 73.025 L 123.175 73.025 Q 123.225 73.075 123.175 73.175 L 123.175 73.175 L 123.175 73.175 Q 123.15 73.2 123.125 73.25 L 123.125 73.25 L 123.125 73.25 Q 123.1 73.3 123.025 73.35 L 123.025 73.35 L 122.125 74.225 L 122.125 74.225 Q 121.575 74.825 121.075 75.25 L 121.075 75.25 L 121.075 75.25 Q 120.65 75.6 120.15 75.6 L 120.15 75.6 L 119.975 75.6 L 119.975 75.6 Q 119.675 75.6 119.575 75.5 L 119.575 75.5 L 119.575 75.5 Q 119.55 75.475 119.513 75.2 L 119.513 75.2 L 119.513 75.2 Q 119.475 74.925 119.475 74.825 L 119.475 74.825 L 119.475 74.75 L 119.475 74.75 Q 119.3 75 118.9 75.288 L 118.9 75.288 L 118.9 75.288 Q 118.5 75.575 118.225 75.575 L 118.225 75.575 L 118.225 75.575 Q 117.85 75.575 117.513 75.363 L 117.513 75.363 L 117.513 75.363 Q 117.175 75.15 117.175 74.675 L 117.175 74.675 L 117.175 74.675 Q 117.175 74.525 117.2 74.45 L 117.2 74.45 L 117.2 74.45 Q 117.325 73.725 117.6 73.125 L 117.6 73.125 L 117.6 73.125 Q 117.95 72.375 118.65 71.9 L 118.65 71.9 L 118.65 71.9 Q 118.975 71.675 119.225 71.675 L 119.225 71.675 L 119.45 71.65 L 119.45 71.65 Q 119.7 71.65 119.875 71.725 L 119.875 71.725 L 119.875 71.725 Q 120.05 71.225 120.15 70.85 L 120.15 70.85 L 120.15 70.85 Q 120.625 69.475 121.075 68.475 L 121.075 68.475 L 121.075 68.475 Q 121.15 68.325 121.475 67.625 L 121.475 67.625 L 121.475 67.625 Q 121.85 66.7 122.6 65.225 L 122.6 65.225 L 122.6 65.225 Q 122.825 64.825 123.075 64.3 L 123.075 64.3 L 123.075 64.3 Q 123.6 63.4 124.125 62.925 L 124.125 62.925 L 124.125 62.925 Q 124.375 62.675 124.75 62.675 L 124.75 62.675 L 124.75 62.675 Q 124.925 62.675 125.025 62.7 L 125.025 62.7 L 125.025 62.7 Q 125.225 62.7 125.375 63 L 125.375 63 L 125.375 63 Z  M 124.875 64.375 L 124.9 64.325 L 124.875 64.325 L 121.725 71.225 L 121.725 71.225 Q 122.05 70.675 122.075 70.6 L 122.075 70.6 L 123.325 68.2 L 123.325 68.2 Q 124.05 66.7 124.65 65.1 L 124.65 65.1 L 124.875 64.375 L 124.875 64.375 Z  M 119.55 73.35 L 119.55 73.35 Q 119.55 73.275 119.613 73.013 L 119.613 73.013 L 119.613 73.013 Q 119.675 72.75 119.75 72.4 L 119.75 72.4 L 119.8 72.025 L 119.8 72.025 Q 119.5 72.125 119.1 73.15 L 119.1 73.15 L 119.1 73.15 Q 118.7 74.175 118.6 74.625 L 118.6 74.625 L 118.6 74.625 Q 118.6 74.65 118.575 74.788 L 118.575 74.788 L 118.575 74.788 Q 118.55 74.925 118.625 74.975 L 118.625 74.975 L 118.625 74.975 Q 118.75 75 119.038 74.775 L 119.038 74.775 L 119.038 74.775 Q 119.325 74.55 119.45 74.35 L 119.45 74.35 L 119.45 74.35 Q 119.45 74.1 119.475 73.925 L 119.475 73.925 L 119.55 73.35 L 119.55 73.35 Z  M 126.875 73.075 L 126.925 73.075 L 126.925 73.075 Q 127.075 73.075 127.075 73.225 L 127.075 73.225 L 127.075 73.225 Q 127.075 73.425 126.85 73.5 L 126.85 73.5 L 126.85 73.5 Q 125.95 73.825 124.225 74.875 L 124.225 74.875 L 124.225 74.875 Q 124.1 74.95 124.05 75.175 L 124.05 75.175 L 123.9 75.85 L 123.9 75.85 Q 123.675 76.725 123 77.35 L 123 77.35 L 123 77.35 Q 122.325 78.025 121.4 78.025 L 121.4 78.025 L 121.4 78.025 Q 121.25 78.025 120.95 77.975 L 120.95 77.975 L 120.95 77.975 Q 120.55 77.9 120.6 77.525 L 120.6 77.525 L 120.6 77.525 Q 120.675 77.2 120.875 77 L 120.875 77 L 120.875 77 Q 121.7 76.175 121.7 76.175 L 121.7 76.175 L 122.35 75.65 L 122.35 75.65 Q 122.575 75.5 122.575 75.225 L 122.575 75.225 L 122.575 75.225 Q 122.6 74.75 122.5 73.8 L 122.5 73.8 L 122.5 73.8 Q 122.475 73.625 122.45 73.375 L 122.45 73.375 L 122.45 73.375 Q 122.425 73.125 122.45 72.975 L 122.45 72.975 L 122.525 72.5 L 122.525 72.5 Q 122.625 71.825 123.3 71.55 L 123.3 71.55 L 123.3 71.55 Q 123.675 71.4 124 71.425 L 124 71.425 L 124.65 71.45 L 124.65 71.45 Q 124.975 71.5 125.125 71.725 L 125.125 71.725 L 125.25 71.9 L 125.25 71.9 Q 125.275 71.925 125.275 71.963 L 125.275 71.963 L 125.275 71.963 Q 125.275 72 125.25 72.025 L 125.25 72.025 L 125.025 72.175 L 125.025 72.175 Q 124.65 72.375 124.6 72.4 L 124.6 72.4 L 124.6 72.4 Q 124.325 72.55 124.2 72.975 L 124.2 72.975 L 124.2 72.975 Q 124.15 73.3 124.125 73.725 L 124.125 73.725 L 124.125 73.725 Q 124.1 74.15 124.1 74.325 L 124.1 74.325 L 124.1 74.325 Q 124.1 74.425 124.25 74.4 L 124.25 74.4 L 124.875 74.025 L 125.5 73.675 L 125.5 73.675 Q 125.875 73.45 126.175 73.313 L 126.175 73.313 L 126.175 73.313 Q 126.475 73.175 126.875 73.075 L 126.875 73.075 L 126.875 73.075 Z  M 122.3 76.45 L 122.275 76.35 L 122.275 76.35 Q 122.225 76.35 122.2 76.375 L 122.2 76.375 L 122.2 76.375 Q 121.7 76.8 121.35 77.325 L 121.35 77.325 L 121.325 77.375 L 121.35 77.45 L 121.35 77.45 Q 121.425 77.45 121.45 77.425 L 121.45 77.425 L 121.45 77.425 Q 122 77.175 122.3 76.45 L 122.3 76.45 L 122.3 76.45 Z  M 85.975 63.425 L 85.975 63.425 Q 86.075 63.45 86.075 63.525 L 86.075 63.525 L 86.075 63.525 Q 86.075 63.625 85.938 63.738 L 85.938 63.738 L 85.938 63.738 Q 85.8 63.85 85.575 63.9 L 85.575 63.9 L 85.575 63.9 Q 85.525 63.9 84.725 64.075 L 84.725 64.075 L 84.725 64.075 Q 83.5 64.275 82.55 64.5 L 82.55 64.5 L 80.275 65.05 L 80.25 65.05 L 80.25 65.05 Q 80.225 65.225 80.15 65.4 L 80.15 65.4 L 80.15 65.4 Q 80.075 65.575 80.05 65.7 L 80.05 65.7 L 80.05 65.7 Q 79.975 66.1 79.6 67.025 L 79.6 67.025 L 79.6 67.025 Q 78.7 69.275 78.225 70.4 L 78.225 70.4 L 78.225 70.4 Q 77.625 71.8 76.825 73.6 L 76.825 73.6 L 76.825 73.6 Q 76.525 74.2 75.875 75.4 L 75.875 75.4 L 75.4 76.25 L 74.725 77.425 L 74.725 77.425 Q 74.5 77.825 73.975 77.9 L 73.975 77.9 L 73.975 77.9 Q 73.975 77.925 73.963 77.913 L 73.963 77.913 L 73.963 77.913 Q 73.95 77.9 73.925 77.925 L 73.925 77.925 L 73.925 77.925 Q 73.85 77.95 73.663 78 L 73.663 78 L 73.663 78 Q 73.475 78.05 73.35 78.05 L 73.35 78.05 L 73.35 78.05 Q 73.175 78.05 73.175 77.95 L 73.175 77.95 L 73.175 77.95 Q 73.15 77.825 73.15 77.625 L 73.15 77.625 L 73.15 77.625 Q 73.15 77.425 73.225 77.325 L 73.225 77.325 L 73.225 77.325 Q 73.475 76.9 73.7 76.35 L 73.7 76.35 L 73.7 76.35 Q 73.925 75.8 74 75.6 L 74 75.6 L 74.8 73.525 L 74.8 73.525 Q 74.9 73.275 75.325 72.275 L 75.325 72.275 L 75.55 71.775 L 76.7 69.1 L 76.7 69.1 Q 77.3 67.625 77.9 66.35 L 77.9 66.35 L 78.25 65.55 L 78.275 65.5 L 76.975 65.75 L 76.975 65.75 Q 75.925 65.95 73.875 66.3 L 73.875 66.3 L 73.875 66.3 Q 73.45 66.375 72.6 66.475 L 72.6 66.475 L 71.925 66.45 L 71.925 66.45 Q 71.85 66.45 71.85 66.425 L 71.85 66.425 L 71.85 66.425 Q 71.8 66.375 71.8 66.35 L 71.8 66.35 L 71.8 66.35 Q 71.8 66.225 71.9 66.2 L 71.9 66.2 L 72.1 66.125 L 72.1 66.125 Q 73.35 65.675 74.475 65.4 L 74.475 65.4 L 74.475 65.4 Q 75.725 65.1 76.35 64.975 L 76.35 64.975 L 79.15 64.325 L 79.15 64.325 Q 80.55 64.025 81.25 63.925 L 81.25 63.925 L 82.325 63.8 L 83.4 63.65 L 83.4 63.65 Q 84.075 63.525 85.275 63.45 L 85.275 63.45 L 85.275 63.45 Q 85.375 63.45 85.488 63.425 L 85.488 63.425 L 85.488 63.425 Q 85.6 63.4 85.75 63.4 L 85.75 63.4 L 85.75 63.4 Q 85.9 63.4 85.975 63.425 L 85.975 63.425 L 85.975 63.425 Z  M 83.575 73.1 L 83.575 73.1 Q 83.6 73.075 83.725 73.038 L 83.725 73.038 L 83.725 73.038 Q 83.85 73 83.925 73.1 L 83.925 73.1 L 83.925 73.1 Q 83.95 73.125 83.95 73.225 L 83.95 73.225 L 83.95 73.225 Q 83.95 73.3 83.925 73.35 L 83.925 73.35 L 83.925 73.35 Q 83.9 73.4 83.875 73.425 L 83.875 73.425 L 83.875 73.425 Q 83.725 73.55 83.175 74 L 83.175 74 L 83.175 74 Q 82.625 74.45 81.963 74.925 L 81.963 74.925 L 81.963 74.925 Q 81.3 75.4 80.9 75.525 L 80.9 75.525 L 80.9 75.525 Q 80.4 75.725 79.8 75.725 L 79.8 75.725 L 79.8 75.725 Q 79.45 75.725 79.4 75.325 L 79.4 75.325 L 79.4 75.325 Q 79.4 75.1 79.438 74.825 L 79.438 74.825 L 79.438 74.825 Q 79.475 74.55 79.525 74.35 L 79.525 74.35 L 79.325 74.55 L 79.325 74.55 Q 78.9 74.95 78.475 75.5 L 78.475 75.5 L 78.475 75.5 Q 78.05 76.05 77.675 76.575 L 77.675 76.575 L 77.675 76.575 Q 77.45 76.875 77.45 76.875 L 77.45 76.875 L 77.45 76.875 Q 77.225 77.15 76.775 77.2 L 76.775 77.2 L 76.3 77.225 L 76.3 77.225 Q 76.25 77.225 76.225 77.2 L 76.225 77.2 L 76.225 77.2 Q 76.2 77.175 76.2 77.15 L 76.2 77.15 L 76.2 77.15 Q 76.2 76.925 76.275 76.7 L 76.275 76.7 L 76.275 76.7 Q 76.35 76.475 76.475 76.188 L 76.475 76.188 L 76.475 76.188 Q 76.6 75.9 76.65 75.775 L 76.65 75.775 L 76.65 75.775 Q 77.55 73.825 78.025 72.875 L 78.025 72.875 L 78.025 72.875 Q 78.1 72.8 78.1 72.725 L 78.1 72.725 L 78.9 71.15 L 79.6 69.65 L 79.85 69.15 L 80.175 68.325 L 80.175 68.325 Q 80.725 66.975 81.825 64.775 L 81.825 64.775 L 81.825 64.775 Q 82.075 64.225 82.375 63.475 L 82.375 63.475 L 82.375 63.475 Q 82.5 63.2 82.85 62.65 L 82.85 62.65 L 82.85 62.65 Q 82.95 62.55 83.125 62.525 L 83.125 62.525 L 83.175 62.525 L 83.175 62.525 Q 83.425 62.525 83.65 62.8 L 83.65 62.8 L 83.65 62.8 Q 84.175 63.675 84.1 64.575 L 84.1 64.575 L 84.1 64.575 Q 84.1 65.65 83.55 66.875 L 83.55 66.875 L 83.55 66.875 Q 82.975 68.2 82 69.45 L 82 69.45 L 82 69.45 Q 81.95 69.5 81.95 69.55 L 81.95 69.55 L 81.95 69.55 Q 81.95 69.55 81.938 69.55 L 81.938 69.55 L 81.938 69.55 Q 81.925 69.55 81.925 69.575 L 81.925 69.575 L 81.4 70.675 L 81.4 70.675 Q 81.325 70.875 81.3 70.925 L 81.3 70.925 L 81.275 70.925 L 81.275 70.925 Q 80.8 71.925 80.3 72.725 L 80.3 72.725 L 80.3 72.725 Q 80.275 72.8 80.25 72.838 L 80.25 72.838 L 80.25 72.838 Q 80.225 72.875 80.2 72.9 L 80.2 72.9 L 80.2 72.9 Q 80.15 73.025 80.275 73.05 L 80.275 73.05 L 80.275 73.05 Q 80.3 73.05 80.325 73.038 L 80.325 73.038 L 80.325 73.038 Q 80.35 73.025 80.4 73.05 L 80.4 73.05 L 80.4 73.05 Q 80.625 73.1 80.788 73.238 L 80.788 73.238 L 80.788 73.238 Q 80.95 73.375 80.9 73.575 L 80.9 73.575 L 80.9 73.575 Q 80.825 73.825 80.763 74.075 L 80.763 74.075 L 80.763 74.075 Q 80.7 74.325 80.625 74.55 L 80.625 74.55 L 80.6 74.775 L 80.6 74.775 Q 80.6 74.975 80.675 75.05 L 80.675 75.05 L 80.725 75.05 L 80.725 75.05 Q 80.8 75.05 81.025 74.9 L 81.025 74.9 L 81.025 74.9 Q 81.475 74.675 82.375 74 L 82.375 74 L 82.375 74 Q 83.275 73.325 83.575 73.1 L 83.575 73.1 L 83.575 73.1 Z  M 83.575 64.85 L 83.575 64.85 Q 83.5 65.425 83.25 66.075 L 83.25 66.075 L 83.25 66.075 Q 83 66.725 82.925 66.95 L 82.925 66.95 L 82.3 68.425 L 82.3 68.425 Q 82.3 68.475 82.25 68.575 L 82.25 68.575 L 82.25 68.65 L 82.25 68.65 Q 82.3 68.65 82.3 68.625 L 82.3 68.625 L 82.375 68.525 L 82.375 68.525 Q 83.05 67.575 83.55 66.25 L 83.55 66.25 L 83.55 66.25 Q 83.85 65.45 83.85 64.625 L 83.85 64.625 L 83.85 64.125 L 83.8 63.825 L 83.8 63.825 Q 83.8 63.8 83.75 63.7 L 83.75 63.7 L 83.7 63.8 L 83.7 63.975 L 83.575 64.85 L 83.575 64.85 Z  M 83.725 75.375 L 83.725 75.375 Q 83.8 75.375 84.1 75.325 L 84.1 75.325 L 84.1 75.325 Q 84.4 75.275 84.65 75.075 L 84.65 75.075 L 84.65 75.075 Q 85.225 74.675 85.75 74.35 L 85.75 74.35 L 86.425 73.9 L 87.275 73.325 L 87.275 73.325 Q 87.45 73.15 87.35 73.075 L 87.35 73.075 L 87.35 73.075 Q 87.25 72.975 87.163 73.025 L 87.163 73.025 L 87.163 73.025 Q 87.075 73.075 87.05 73.075 L 87.05 73.075 L 87.05 73.075 Q 86.9 73.075 85.75 73.825 L 85.75 73.825 L 85.75 73.825 Q 84.75 74.45 84.65 74.45 L 84.65 74.45 L 84.55 74.45 L 84.55 74.45 Q 84.275 74.45 84.3 74.225 L 84.3 74.225 L 84.3 74.225 Q 84.3 74.15 84.338 74 L 84.338 74 L 84.338 74 Q 84.375 73.85 84.4 73.75 L 84.4 73.75 L 84.4 73.75 Q 84.425 73.625 84.6 73.45 L 84.6 73.45 L 84.6 73.45 Q 84.8 73.325 85.15 73.025 L 85.15 73.025 L 85.15 73.025 Q 85.575 72.675 85.775 72.15 L 85.775 72.15 L 85.775 72.15 Q 85.85 72 85.85 71.825 L 85.85 71.825 L 85.85 71.775 L 85.85 71.775 Q 85.85 71.5 85.45 71.45 L 85.45 71.45 L 85.325 71.45 L 85.325 71.45 Q 85.1 71.45 84.85 71.575 L 84.85 71.575 L 84.85 71.575 Q 84.075 71.9 83.575 72.575 L 83.575 72.575 L 83.575 72.575 Q 83.225 73.075 82.95 73.775 L 82.95 73.775 L 82.95 73.775 Q 82.825 74.1 82.7 74.5 L 82.7 74.5 L 82.7 74.5 Q 82.6 74.85 82.875 75.113 L 82.875 75.113 L 82.875 75.113 Q 83.15 75.375 83.725 75.375 L 83.725 75.375 L 83.725 75.375 Z  M 85.475 72.025 L 85.425 72.125 L 85.125 72.6 L 85.125 72.6 Q 85.05 72.7 84.938 72.813 L 84.938 72.813 L 84.938 72.813 Q 84.825 72.925 84.75 72.975 L 84.75 72.975 L 84.75 72.925 L 84.75 72.925 Q 84.75 72.8 84.85 72.675 L 84.85 72.675 L 84.85 72.675 Q 84.95 72.55 84.975 72.525 L 84.975 72.525 L 84.975 72.525 Q 85.1 72.325 85.4 71.975 L 85.4 71.975 L 85.45 71.975 L 85.475 72.025 L 85.475 72.025 Z " fill="rgb(255,255,255)"/></svg>